<svg xmlns="http://www.w3.org/2000/svg" width="128" height="128.001" viewBox="0 0 128 128.001"><path d="M28.862,53.979a2,2,0,0,0,2.661,2.579l9.7-4.276a28.471,28.471,0,0,0,15.35,4.547A28.419,28.419,0,0,0,87.1,54.315L97.1,57.824a2,2,0,0,0,2.452-2.778l-4.795-9.637A28.416,28.416,0,0,0,69.976,3.3,28.423,28.423,0,0,0,32.894,44Zm64.93-27.1A24.346,24.346,0,0,1,90.78,44.308a2,2,0,0,0-.078,1.923l3.079,6.189-6.4-2.246a2,2,0,0,0-1.939.348,24.406,24.406,0,0,1-20.567,5.089,28.413,28.413,0,0,0,14.165-44.7A28.9,28.9,0,0,0,76.7,8.269,24.43,24.43,0,0,1,93.792,26.875ZM32.419,25.447A24.415,24.415,0,1,1,56.67,52.831a24.552,24.552,0,0,1-14.086-4.457,2.083,2.083,0,0,0-1.96-.2l-6.21,2.737L37,44.5a2,2,0,0,0-.227-1.911A24.345,24.345,0,0,1,32.419,25.447Zm21.706,2.967a2.5,2.5,0,1,1,2.5,2.5A2.5,2.5,0,0,1,54.124,28.414Zm11.442,0a2.5,2.5,0,1,1,2.5,2.5A2.5,2.5,0,0,1,65.566,28.414Zm-22.827,0a2.5,2.5,0,1,1,2.5,2.5A2.5,2.5,0,0,1,42.739,28.414Zm-3.726,68.8a16.22,16.22,0,1,0-17.775,0A30.179,30.179,0,0,0,0,126a2,2,0,0,0,2,2H58.25a2,2,0,0,0,2-2A30.179,30.179,0,0,0,39.013,97.21ZM17.905,83.652a12.22,12.22,0,1,1,12.223,12.22h-.006A12.234,12.234,0,0,1,17.905,83.652ZM4.076,124A26.16,26.16,0,0,1,30.122,99.872h.007A26.159,26.159,0,0,1,56.174,124ZM106.762,97.21a16.22,16.22,0,1,0-17.774,0A30.179,30.179,0,0,0,67.75,126a2,2,0,0,0,2,2H126a2,2,0,0,0,2-2A30.179,30.179,0,0,0,106.762,97.21ZM85.655,83.652a12.22,12.22,0,1,1,12.223,12.22h-.007A12.234,12.234,0,0,1,85.655,83.652ZM71.826,124A26.16,26.16,0,0,1,97.872,99.872h.006A26.159,26.159,0,0,1,123.924,124Z" transform="translate(0 0.004)" fill="#f5f5f5"/></svg>